<svg xmlns="http://www.w3.org/2000/svg" width="24" height="24" fill="none" viewBox="0 0 24 24"><rect width="5.833" height="5.833" x="5.334" y="5.333" fill="#64748B" rx="1.5"/><path fill="#64748B" fill-rule="evenodd" d="M12.834 6.83331C12.834 6.00489 13.5056 5.33331 14.334 5.33331H17.1673C17.9957 5.33331 18.6673 6.00489 18.6673 6.83331V9.66665C18.6673 10.4951 17.9957 11.1666 17.1673 11.1666H14.334C13.5056 11.1666 12.834 10.4951 12.834 9.66665V6.83331ZM5.33398 14.3333C5.33398 13.5049 6.00556 12.8333 6.83398 12.8333H9.66732C10.4957 12.8333 11.1673 13.5049 11.1673 14.3333V17.1666C11.1673 17.9951 10.4957 18.6666 9.66732 18.6666H6.83399C6.00556 18.6666 5.33398 17.9951 5.33398 17.1666V14.3333ZM14.334 12.8333C13.5056 12.8333 12.834 13.5049 12.834 14.3333V17.1666C12.834 17.9951 13.5056 18.6666 14.334 18.6666H17.1673C17.9957 18.6666 18.6673 17.9951 18.6673 17.1666V14.3333C18.6673 13.5049 17.9957 12.8333 17.1673 12.8333H14.334Z" clip-rule="evenodd"/></svg>